<mxfile host="app.diagrams.net" modified="2023-04-12T21:32:23.521Z" agent="Mozilla/5.0 (Macintosh; Intel Mac OS X 10_15_7) AppleWebKit/537.36 (KHTML, like Gecko) Chrome/111.0.0.0 Safari/537.36" version="21.1.7" etag="TUZ0WpAXHa2P6pD2fkso" type="github">
  <diagram name="Page-1" id="ZHHVYMPbJmf7_S3zJ36T">
    <mxGraphModel>
      <root>
        <mxCell id="0" />
        <mxCell id="1" parent="0" />
      </root>
    </mxGraphModel>
  </diagram>
</mxfile>
